:FULLY-SPECIFIED
:FORCE-ALL-JOINTS-BE-3DOF
:DEGREES
204
root -2.89729 16.3091 -36.1145 3.82678 0.673346 -2.98564
lfemur -23.9221 6.67798 -8.11498
ltibia 48.5698 -0 0
lfoot -23.7493 0.432088 -0.000127831
ltoes -9.77448 0 0
rfemur -23.8354 -7.53502 14.7415
rtibia 50.5698 -0 0
rfoot -27.5517 2.03964 3.7564e-05
rtoes -8.43668 0 0
lowerback 7.29825 1.96814 -1.63217
upperback -3.77809 2.55937 1.32836
thorax -8.22032 1.38153 1.94872
lowerneck -3.44672 -3.90482 -6.5453
upperneck 6.91481 -5.26653 5.96234
head 3.24738 -2.59644 2.93934
lclavicle 7.61206e-15 -4.87022e-15 0
lhumerus -26.5641 -1.842 88.7786
lradius 24.3351 -0 0
lwrist -31.3658 0 0
lhand -28.2715 30.0647 7.72766e-06
lfingers 7.12502 -0 0
lthumb -1.64812 60.0382 7.48265e-06
rclavicle 7.61206e-15 -4.87022e-15 0
rhumerus -32.2728 2.00673 -79.9242
rradius 30.5057 -0 0
rwrist 3.11678 0 0
rhand -19.8086 -27.0247 -2.11714e-05
rfingers 7.12502 -0 0
rthumb 6.52463 -56.9042 -1.9992e-05
205
root -2.89816 16.3068 -36.1133 3.81804 0.67555 -2.98026
lfemur -23.9182 6.68157 -8.11987
ltibia 48.5817 -0 0
lfoot -23.7569 0.430017 -0.000117343
ltoes -9.78308 0 0
rfemur -23.8311 -7.53645 14.7338
rtibia 50.5857 -0 0
rfoot -27.5614 2.02817 1.41078e-06
rtoes -8.46506 0 0
lowerback 7.30109 1.96704 -1.63195
upperback -3.77443 2.56154 1.32593
thorax -8.21594 1.3825 1.94643
lowerneck -3.4414 -3.9061 -6.54375
upperneck 6.90648 -5.26857 5.96524
head 3.2445 -2.59757 2.94075
lclavicle 7.61206e-15 -4.87022e-15 0
lhumerus -26.5616 -1.85759 88.7932
lradius 24.3428 -0 0
lwrist -31.3573 0 0
lhand -28.2752 30.0616 6.70326e-06
lfingers 7.12502 -0 0
lthumb -1.65176 60.035 6.49491e-06
rclavicle 7.61206e-15 -4.87022e-15 0
rhumerus -32.2783 2.0051 -79.9172
rradius 30.501 -0 0
rwrist 3.11853 0 0
rhand -19.8058 -27.0283 -1.89317e-05
rfingers 7.12502 -0 0
rthumb 6.52732 -56.9078 -1.7883e-05
206
root -2.89904 16.3045 -36.1121 3.80705 0.679707 -2.97491
lfemur -23.9163 6.68707 -8.12394
ltibia 48.6021 -0 0
lfoot -23.7693 0.42687 -0.000102189
ltoes -9.79707 0 0
rfemur -23.8274 -7.54023 14.7258
rtibia 50.6097 -0 0
rfoot -27.5757 2.01514 -2.44756e-05
rtoes -8.49518 0 0
lowerback 7.30394 1.96594 -1.63172
upperback -3.76976 2.56295 1.32354
thorax -8.21103 1.38308 1.94428
lowerneck -3.43623 -3.90778 -6.54282
upperneck 6.89735 -5.27115 5.96921
head 3.24821 -2.59663 2.9401
lclavicle 7.61206e-15 -4.87022e-15 0
lhumerus -26.5582 -1.87316 88.8088
lradius 24.3481 -0 0
lwrist -31.3477 0 0
lhand -28.2787 30.0586 5.53752e-06
lfingers 7.12502 -0 0
lthumb -1.65513 60.0319 5.36846e-06
rclavicle 7.61206e-15 -4.87022e-15 0
rhumerus -32.2833 2.00268 -79.9093
rradius 30.505 -0 0
rwrist 3.12029 0 0
rhand -19.806 -27.0271 -2.26392e-05
rfingers 7.12502 -0 0
rthumb 6.52713 -56.9065 -2.14001e-05
207
root -2.89992 16.3022 -36.1109 3.79352 0.68614 -2.96977
lfemur -23.9174 6.69505 -8.12668
ltibia 48.6333 -0 0
lfoot -23.7875 0.422471 -8.28249e-05
ltoes -9.81258 0 0
rfemur -23.8247 -7.54713 14.7178
rtibia 50.644 -0 0
rfoot -27.5958 2.00059 -3.90463e-05
rtoes -8.52754 0 0
lowerback 7.3005 1.96635 -1.631
upperback -3.76391 2.5635 1.32126
thorax -8.20549 1.38322 1.94228
lowerneck -3.43148 -3.90995 -6.54255
upperneck 6.88763 -5.27439 5.97432
head 3.24441 -2.59813 2.9417
lclavicle 7.61206e-15 -4.87022e-15 0
lhumerus -26.5534 -1.88869 88.8256
lradius 24.354 -0 0
lwrist -31.3367 0 0
lhand -28.2845 30.0528 2.77014e-06
lfingers 7.12502 -0 0
lthumb -1.66068 60.0262 2.68671e-06
rclavicle 7.61206e-15 -4.87022e-15 0
rhumerus -32.2872 1.99962 -79.9009
rradius 30.4991 -0 0
rwrist 3.12205 0 0
rhand -19.8035 -27.0306 -1.96919e-05
rfingers 7.12502 -0 0
rthumb 6.5328 -56.9145 -1.56464e-05
208
root -2.9008 16.3 -36.1097 3.77717 0.695172 -2.96506
lfemur -23.9221 6.70609 -8.12759
ltibia 48.6773 -0 0
lfoot -23.8129 0.416642 -6.03454e-05
ltoes -9.83117 0 0
rfemur -23.8234 -7.55795 14.71
rtibia 50.6904 -0 0
rfoot -27.6228 1.98455 -4.22306e-05
rtoes -8.56262 0 0
lowerback 7.30396 1.96541 -1.63116
upperback -3.7567 2.56309 1.31914
thorax -8.1992 1.38287 1.94047
lowerneck -3.42742 -3.91269 -6.54301
upperneck 6.87752 -5.27837 5.98063
head 3.24075 -2.59997 2.9438
lclavicle 7.61206e-15 -4.87022e-15 0
lhumerus -26.5471 -1.90417 88.8436
lradius 24.3607 -0 0
lwrist -31.3244 0 0
lhand -28.2863 30.0512 1.86985e-06
lfingers 7.12502 -0 0
lthumb -1.66245 60.0245 1.81433e-06
rclavicle 7.61206e-15 -4.87022e-15 0
rhumerus -32.2897 1.99609 -79.8921
rradius 30.4932 -0 0
rwrist 3.12381 0 0
rhand -19.8006 -27.0343 -1.77084e-05
rfingers 7.12502 -0 0
rthumb 6.53429 -56.9171 -1.2156e-05
209
root -2.90167 16.2977 -36.1085 3.75771 0.707127 -2.96097
lfemur -23.9311 6.72076 -8.12617
ltibia 48.7364 -0 0
lfoot -23.8465 0.409206 -3.67235e-05
ltoes -9.85348 0 0
rfemur -23.824 -7.57346 14.7028
rtibia 50.751 -0 0
rfoot -27.6578 1.96707 -3.50608e-05
rtoes -8.60113 0 0
lowerback 7.30472 1.96499 -1.63101
upperback -3.74795 2.5616 1.31723
thorax -8.19205 1.38195 1.93888
lowerneck -3.42432 -3.91606 -6.54424
upperneck 6.86721 -5.2832 5.98818
head 3.23734 -2.60219 2.94644
lclavicle 7.61206e-15 -4.87022e-15 0
lhumerus -26.5388 -1.91956 88.8631
lradius 24.3682 -0 0
lwrist -31.3107 0 0
lhand -28.2893 30.048 -0
lfingers 7.12502 -0 0
lthumb -1.66536 60.0213 1.98785e-16
rclavicle 7.61206e-15 -4.87022e-15 0
rhumerus -32.2904 1.99224 -79.8832
rradius 30.4878 -0 0
rwrist 3.12272 0 0
rhand -19.7984 -27.038 -1.25665e-05
rfingers 7.12502 -0 0
rthumb 6.5344 -56.9172 -1.18921e-05
210
root -2.90255 16.2954 -36.1073 3.73487 0.722327 -2.95771
lfemur -23.9452 6.73963 -8.12192
ltibia 48.8126 -0 0
lfoot -23.8895 0.399987 -1.50813e-05
ltoes -9.88014 0 0
rfemur -23.8269 -7.59444 14.6965
rtibia 50.8278 -0 0
rfoot -27.702 1.94818 -1.97898e-05
rtoes -8.64295 0 0
lowerback 7.31056 1.96321 -1.63103
upperback -3.73749 2.55892 1.3156
thorax -8.18394 1.38042 1.93753
lowerneck -3.42246 -3.92015 -6.5463
upperneck 6.85691 -5.28897 5.99705
head 3.23434 -2.60485 2.94962
lclavicle 7.61206e-15 -4.87022e-15 0
lhumerus -26.5283 -1.93485 88.8843
lradius 24.3765 -0 0
lwrist -31.2954 0 0
lhand -28.2893 30.048 -0
lfingers 7.12502 -0 0
lthumb -1.66536 60.0213 1.98785e-16
rclavicle 7.61206e-15 -4.87022e-15 0
rhumerus -32.2891 1.98822 -79.8744
rradius 30.4818 -0 0
rwrist 3.12431 0 0
rhand -19.796 -27.0421 -6.69155e-06
rfingers 7.12502 -0 0
rthumb 6.53672 -56.9213 -6.33264e-06
211
root -2.90343 16.2931 -36.1061 3.70836 0.741095 -2.95548
lfemur -23.9652 6.76329 -8.11434
ltibia 48.9082 0 0
lfoot -23.9431 0.388808 0
ltoes -9.91177 0 0
rfemur -23.8325 -7.62169 14.6913
rtibia 50.9227 0 0
rfoot -27.7564 1.92794 0
rtoes -8.68918 0 0
lowerback 7.31817 1.96043 -1.6306
upperback -3.72515 2.55495 1.3143
thorax -8.17475 1.37822 1.93645
lowerneck -3.4221 -3.92503 -6.54924
upperneck 6.84681 -5.29579 6.00728
head 3.23186 -2.60798 2.95339
lclavicle 7.61206e-15 -4.87022e-15 0
lhumerus -26.5151 -1.95002 88.9072
lradius 24.3857 0 0
lwrist -31.2785 0 0
lhand -28.2893 30.048 0
lfingers 7.12502 0 0
lthumb -1.66536 60.0213 0
rclavicle 7.61206e-15 -4.87022e-15 0
rhumerus -32.2852 1.98419 -79.8659
rradius 30.476 0 0
rwrist 3.12908 0 0
rhand -19.7934 -27.0466 0
rfingers 7.12502 0 0
rthumb 6.53927 -56.9257 0
212
root -2.90331 16.2911 -36.1058 3.68254 0.761055 -2.95306
lfemur -23.9845 6.79284 -8.10658
ltibia 49.0018 -0 0
lfoot -23.9984 0.372385 1.55438e-05
ltoes -9.93432 0 0
rfemur -23.8372 -7.64739 14.6865
rtibia 51.0167 -0 0
rfoot -27.8113 1.90562 2.17267e-05
rtoes -8.729 0 0
lowerback 7.32251 1.95562 -1.63436
upperback -3.71269 2.54781 1.31274
thorax -8.16359 1.37469 1.93805
lowerneck -3.41444 -3.96067 -6.57748
upperneck 6.82699 -5.34394 6.03924
head 3.22673 -2.63174 2.96667
lclavicle 3.26131e-15 -6.26172e-15 0
lhumerus -26.5 -1.94547 88.9221
lradius 24.4124 -0 0
lwrist -31.2899 0 0
lhand -28.3088 30.0226 -0.000508565
lfingers 7.12502 -0 0
lthumb -1.68419 59.9959 -0.000490631
rclavicle 3.26131e-15 -6.26172e-15 0
rhumerus -32.2788 1.98232 -79.8627
rradius 30.4648 -0 0
rwrist 3.1389 0 0
rhand -19.7966 -27.0431 0.000106517
rfingers 7.12502 -0 0
rthumb 6.53621 -56.9223 0.000100377
213
root -2.90319 16.2891 -36.1054 3.66162 0.779655 -2.94926
lfemur -23.9968 6.82815 -8.1019
ltibia 49.0723 -0 0
lfoot -24.046 0.348459 3.5288e-05
ltoes -9.93535 0 0
rfemur -23.8375 -7.66397 14.6812
rtibia 51.0909 -0 0
rfoot -27.8568 1.88088 4.51777e-05
rtoes -8.75272 0 0
lowerback 7.31928 1.9481 -1.64612
upperback -3.70191 2.53621 1.31039
thorax -8.15002 1.3694 1.94424
lowerneck -3.39203 -4.05085 -6.65046
upperneck 6.78927 -5.46543 6.10907
head 3.21626 -2.69217 2.99655
lclavicle 3.26131e-15 -6.26172e-15 0
lhumerus -26.4842 -1.90533 88.9206
lradius 24.4072 -0 0
lwrist -31.354 0 0
lhand -28.3449 29.9845 -0.00192687
lfingers 7.12502 -0 0
lthumb -1.7191 59.9578 -0.00185874
rclavicle 3.26131e-15 -6.26172e-15 0
rhumerus -32.2702 1.9842 -79.8687
rradius 30.4435 -0 0
rwrist 3.15694 0 0
rhand -19.8105 -27.0246 0.000394745
rfingers 7.12502 -0 0
rthumb 6.52276 -56.9043 0.000371936
214
root -2.90308 16.2871 -36.1051 3.64506 0.796957 -2.94429
lfemur -24.0029 6.86792 -8.09992
ltibia 49.1224 -0 0
lfoot -24.0866 0.318389 5.19915e-05
ltoes -9.90483 0 0
rfemur -23.8339 -7.67256 14.6754
rtibia 51.1473 -0 0
rfoot -27.8937 1.85429 7.02817e-05
rtoes -8.78004 0 0
lowerback 7.3097 1.93831 -1.66458
upperback -3.69267 2.52086 1.30739
thorax -8.13456 1.36265 1.95428
lowerneck -3.35709 -4.18638 -6.76082
upperneck 6.73644 -5.64787 6.21053
head 3.20127 -2.7831 3.04026
lclavicle 3.26131e-15 -6.26172e-15 0
lhumerus -26.4681 -1.83523 88.9052
lradius 24.3825 -0 0
lwrist -31.4622 0 0
lhand -28.4004 29.926 -0.00415171
lfingers 7.12502 -0 0
lthumb -1.77269 59.8994 -0.00400484
rclavicle 3.26131e-15 -6.26172e-15 0
rhumerus -32.2599 1.98915 -79.8823
rradius 30.4136 -0 0
rwrist 3.18193 0 0
rhand -19.8335 -26.9935 0.000843779
rfingers 7.12502 -0 0
rthumb 6.50054 -56.874 0.000794975
215
root -2.90296 16.2851 -36.1047 3.6323 0.813023 -2.9384
lfemur -24.0039 6.91087 -8.10026
ltibia 49.1549 -0 0
lfoot -24.1209 0.283535 6.21992e-05
ltoes -9.88507 0 0
rfemur -23.8271 -7.67429 14.6692
rtibia 51.1881 -0 0
rfoot -27.9229 1.82644 9.78359e-05
rtoes -8.75929 0 0
lowerback 7.29501 1.92669 -1.68842
upperback -3.68483 2.50252 1.3039
thorax -8.11777 1.35473 1.96744
lowerneck -3.31184 -4.35805 -6.90122
upperneck 6.67124 -5.8789 6.33742
head 3.18262 -2.89838 3.09506
lclavicle 3.26131e-15 -6.26172e-15 0
lhumerus -26.4519 -1.74075 88.8782
lradius 24.3775 -0 0
lwrist -31.6058 0 0
lhand -28.4713 29.8512 -0.00707978
lfingers 7.12502 -0 0
lthumb -1.84117 59.8247 -0.00682926
rclavicle 3.26131e-15 -6.26172e-15 0
rhumerus -32.2483 1.99647 -79.902
rradius 30.3768 -0 0
rwrist 3.21257 0 0
rhand -19.8639 -26.9522 0.00143579
rfingers 7.12502 -0 0
rthumb 6.4712 -56.8336 0.0013527
216
root -2.90284 16.2831 -36.1044 3.62282 0.827912 -2.93183
lfemur -24.0005 6.95569 -8.10258
ltibia 49.1723 -0 0
lfoot -24.1493 0.245255 6.51543e-05
ltoes -9.83988 0 0
rfemur -23.8176 -7.67029 14.6628
rtibia 51.2154 -0 0
rfoot -27.9453 1.79789 0.000128974
rtoes -8.76036 0 0
lowerback 7.27645 1.91368 -1.71633
upperback -3.67826 2.48192 1.30007
thorax -8.10019 1.34593 1.98301
lowerneck -3.25849 -4.55665 -7.0643
upperneck 6.59645 -6.14616 6.48351
head 3.16114 -3.03186 3.15817
lclavicle 3.26131e-15 -6.26172e-15 0
lhumerus -26.4361 -1.62752 88.8419
lradius 24.3645 -0 0
lwrist -31.7765 0 0
lhand -28.5537 29.7643 -0.010603
lfingers 7.12502 -0 0
lthumb -1.92078 59.738 -0.0102277
rclavicle 3.26131e-15 -6.26172e-15 0
rhumerus -32.2359 2.00545 -79.9263
rradius 30.3347 -0 0
rwrist 3.24756 0 0
rhand -19.9 -26.9029 0.00215267
rfingers 7.12502 -0 0
rthumb 6.43636 -56.7856 0.00202805
